<svg xmlns="http://www.w3.org/2000/svg" viewBox="0 0 24 24"><path fill="#25D366" d="M.057 24l1.687-6.163A11.867 11.867 0 0111.99 0C18.627 0 24 5.373 24 12.009c0 6.627-5.373 12-12.01 12a11.95 11.95 0 01-6.115-1.688L.057 24zM6.6 20.313c1.676.995 3.276 1.591 5.431 1.591 5.448 0 9.885-4.434 9.885-9.885 0-5.45-4.437-9.885-9.885-9.885-5.45 0-9.885 4.435-9.885 9.885 0 2.155.657 3.876 1.76 5.488l-.375 3.98 3.069-.174zm11.387-5.464c-.074-.124-.272-.198-.57-.347-.297-.149-1.758-.868-2.03-.967-.272-.099-.47-.149-.669.149-.198.297-.767.967-.94 1.165-.173.198-.347.223-.644.074-.297-.149-1.255-.462-2.39-1.474-.883-.788-1.48-1.761-1.653-2.059-.173-.297-.018-.458.13-.606.134-.133.297-.347.446-.521.149-.173.198-.297.297-.495.099-.198.05-.372-.025-.521-.074-.149-.669-1.611-.916-2.206-.242-.579-.487-.5-.669-.51l-.57-.01c-.198 0-.521.074-.794.372s-1.04 1.016-1.04 2.479 1.065 2.876 1.214 3.074c.149.198 2.095 3.2 5.076 4.487.709.306 1.262.489 1.694.626.712.226 1.36.194 1.872.118.571-.085 1.758-.718 2.006-1.41.248-.694.248-1.289.173-1.414z"/></svg>